<?xml version="1.0" encoding="UTF-8" standalone="no"?>
<!-- Created with Inkscape (http://www.inkscape.org/) -->

<svg
   xmlns:dc="http://purl.org/dc/elements/1.1/"
   xmlns:cc="http://creativecommons.org/ns#"
   xmlns:rdf="http://www.w3.org/1999/02/22-rdf-syntax-ns#"
   xmlns:svg="http://www.w3.org/2000/svg"
   xmlns="http://www.w3.org/2000/svg"
   xmlns:sodipodi="http://sodipodi.sourceforge.net/DTD/sodipodi-0.dtd"
   xmlns:inkscape="http://www.inkscape.org/namespaces/inkscape"
   id="svg3055"
   version="1.1"
   inkscape:version="0.48.2 r9819"
   width="618"
   height="292"
   sodipodi:docname="foundrylogo.png"
   inkscape:export-filename="/Users/Juliana/Documents/repos/olinfoundry.github.com/images/foundrylogo.png"
   inkscape:export-xdpi="90"
   inkscape:export-ydpi="90">
  <metadata
     id="metadata3061">
    <rdf:RDF>
      <cc:Work
         rdf:about="">
        <dc:format>image/svg+xml</dc:format>
        <dc:type
           rdf:resource="http://purl.org/dc/dcmitype/StillImage" />
        <dc:title></dc:title>
      </cc:Work>
    </rdf:RDF>
  </metadata>
  <defs
     id="defs3059" />
  <sodipodi:namedview
     pagecolor="#ffffff"
     bordercolor="#666666"
     borderopacity="1"
     objecttolerance="10"
     gridtolerance="10"
     guidetolerance="10"
     inkscape:pageopacity="0"
     inkscape:pageshadow="2"
     inkscape:window-width="1444"
     inkscape:window-height="690"
     id="namedview3057"
     showgrid="false"
     inkscape:zoom="1.6110135"
     inkscape:cx="240.13101"
     inkscape:cy="155.59795"
     inkscape:window-x="0"
     inkscape:window-y="0"
     inkscape:window-maximized="0"
     inkscape:current-layer="svg3055"
     showguides="true"
     inkscape:guide-bbox="true" />
  <path
     style="fill:#b3b3b3"
     d="m 457.5,260.25982 c -5.05194,-2.7632 -6.0857,-8.4528 -2.10476,-11.5842 1.70494,-1.34111 2.14658,-2.32841 1.53244,-3.42582 -0.54272,-0.96978 -0.36676,-2.22009 0.47431,-3.37033 1.14473,-1.56551 1.06813,-2.11731 -0.53244,-3.83532 -2.62905,-2.82195 -2.38499,-7.91844 0.54226,-11.32384 2.2841,-2.65718 2.85335,-2.80576 10.75,-2.80576 7.88566,0 8.35553,0.12211 8.65774,2.25 0.23237,1.63616 -0.18406,2.25 -1.52642,2.25 -1.55562,0 -1.78498,0.63971 -1.45814,4.06695 0.48867,5.1241 -2.35485,8.50719 -7.94404,9.45147 -2.14002,0.36156 -3.89095,1.04667 -3.89095,1.52247 0,0.8476 6.23858,2.94253 8.79545,2.95353 2.06024,0.009 6.20455,4.70925 6.20455,7.03705 0,1.16731 -1.31538,3.43776 -2.92308,5.04545 -2.57229,2.5723 -3.62233,2.91943 -8.75,2.89267 -3.2048,-0.0167 -6.72692,-0.52267 -7.82692,-1.12432 z m 12.53517,-5.38765 c 1.74749,-2.10559 0.17643,-3.49093 -4.66409,-4.1127 -4.97207,-0.63868 -8.51027,1.57752 -6.46089,4.04687 1.76259,2.12379 9.37962,2.16886 11.12498,0.0658 z m -2.075,-19.90963 c 0.66884,-0.8059 0.90778,-2.38868 0.53697,-3.55699 -0.52065,-1.64042 -1.34421,-2.03722 -3.73176,-1.79798 -1.68503,0.16884 -3.53297,1.05676 -4.10654,1.97316 -2.26204,3.61406 4.50667,6.74917 7.30133,3.38181 z m -213.77035,12.42638 c -12.70273,-7.74465 -2.70211,-27.44051 11.73648,-23.1146 14.91645,4.46908 11.68832,25.13275 -3.9263,25.13275 -2.75337,0 -5.78481,-0.78333 -7.81018,-2.01815 z m 13.2143,-6.01077 c 2.60608,-2.50107 2.36442,-7.92286 -0.45491,-10.20581 -6.25368,-5.06392 -15.12381,1.37538 -11.83564,8.59213 2.11077,4.63263 8.29833,5.44502 12.29055,1.61368 z m 13.22363,6.50871 c -0.80579,-2.09984 -0.82412,-33.797 -0.0208,-35.89052 0.74807,-1.94945 3.74848,-2.06333 5.29412,-0.20094 0.79087,0.95294 1.06124,6.91831 0.87245,19.25 l -0.27352,17.86915 -2.62225,0.3041 c -1.70869,0.19815 -2.84096,-0.26583 -3.25,-1.33179 z m 12.59237,-11.22231 0.27988,-12.75 2.75,-0.31642 2.75,-0.31642 0,13.06642 0,13.06642 -3.02988,0 -3.02987,0 0.27987,-12.75 z m 12.21398,11.43886 c -0.27673,-0.72113 -0.3751,-6.45863 -0.21862,-12.75 0.27573,-11.0853 0.35577,-11.44896 2.58956,-11.76562 1.26778,-0.17972 2.91521,0.17963 3.66097,0.79855 0.9335,0.77474 1.55783,0.79865 2.00398,0.0768 0.70867,-1.14665 6.40478,-1.41758 8.98521,-0.42738 3.20755,1.23086 4.5448,5.90791 4.5448,15.89558 l 0,9.61608 -2.75,-0.31642 c -2.74634,-0.316 -2.75039,-0.32833 -3.04182,-9.26435 -0.30968,-9.49573 -1.13397,-11.5521 -4.63062,-11.5521 -3.70412,0 -4.57756,1.93065 -4.57756,10.11821 0,4.24502 -0.27314,8.43002 -0.60699,9.3 -0.73226,1.90825 -5.25174,2.11352 -5.95891,0.27065 z m 47.78269,-0.24956 c -7.29478,-5.10947 -6.8401,-18.99713 0.75048,-22.92237 2.97348,-1.53765 9.56064,-2.01905 12.45094,-0.90994 0.95622,0.36693 1.58179,1.794 1.58179,3.60841 0,3.18914 0.28337,3.13577 -6.53751,1.23135 -3.46944,-0.96868 -7.46249,3.02884 -7.46249,7.47084 0,6.16287 5.06658,8.87368 12.97626,6.94279 1.92584,-0.47013 2.67576,4.11107 0.86123,5.26122 -2.31278,1.46597 -12.21324,1.00394 -14.6207,-0.6823 z m 23.92669,-0.97203 c -6.17141,-5.1929 -6.52569,-13.76601 -0.79826,-19.31725 8.43911,-8.17951 22.65478,-2.86066 22.65478,8.47637 0,8.82162 -4.72218,13.37361 -13.87361,13.37361 -3.86265,0 -5.64497,-0.56547 -7.98291,-2.53273 z M 391.25,241.68165 c 2.74231,-2.47134 2.34271,-8.83263 -0.67923,-10.81268 -5.83085,-3.82053 -13.52773,0.91208 -12.09469,7.43669 1.22688,5.58595 8.25928,7.44452 12.77392,3.37599 z m 13.41667,7.06623 c -0.98455,-0.98455 -0.78113,-35.60439 0.21847,-37.18172 0.46998,-0.74162 1.70059,-1.18579 2.73469,-0.98705 1.75108,0.33654 1.89882,1.68209 2.15176,19.59839 l 0.2716,19.23705 -2.35493,0 c -1.29521,0 -2.65493,-0.3 -3.02159,-0.66667 z m 12.56174,-18.58333 0.27159,-19.25 2.5,0 2.5,0 0.27159,19.25 0.2716,19.25 -3.04319,0 -3.04319,0 0.2716,-19.25 z m 15.86638,16.6763 c -9.04675,-7.61233 -4.2892,-23.4263 7.04768,-23.4263 2.19396,0 4.85477,0.46334 5.91292,1.02964 2.55304,1.36635 4.94461,6.14589 4.94461,9.88177 l 0,3.01072 -8.46986,0.28894 -8.46987,0.28893 1.22786,2.4568 c 1.86946,3.74057 7.21764,4.33487 13.96187,1.55146 1.43413,-0.59187 1.75,-0.1904 1.75,2.22424 0,3.66176 -3.03935,5.2675 -9.97033,5.2675 -3.77958,0 -5.5641,-0.57881 -7.93488,-2.5737 z m 11.72853,-15.06912 c -0.80925,-4.11184 -8.84782,-4.18401 -9.63693,-0.0865 -0.28083,1.45823 0.47375,1.72932 4.81361,1.72932 4.23819,0 5.08958,-0.28998 4.82332,-1.64282 z m 38.81252,15.18113 c -6.41895,-5.94888 -6.1193,-17.28457 0.58095,-21.97761 1.22552,-0.85838 4.146,-1.5607 6.48994,-1.5607 5.85255,0 10.19612,3.85464 10.98668,9.75 l 0.56993,4.25 -8.63167,0 c -9.29655,0 -10.6032,0.90581 -6.57081,4.55508 2.26696,2.05157 8.45241,2.31096 11.84251,0.49663 2.39259,-1.28047 3.51999,0.039 2.57561,3.01452 -0.82834,2.60986 -4.3278,3.93377 -10.39806,3.93377 -3.70225,0 -5.39159,-0.55857 -7.44508,-2.46169 z M 496,232.48598 c 0,-1.53315 -3.023,-4.07143 -4.84892,-4.07143 -2.03003,0 -6.15108,2.71788 -6.15108,4.0567 0,0.51882 2.475,0.9433 5.5,0.9433 3.025,0 5.5,-0.41786 5.5,-0.92857 z m 17,4.57014 c 0,-0.74714 5.60984,-13.33383 12.4663,-27.97043 l 12.4663,-26.61201 -14.4663,-29.26471 C 515.50984,137.11338 509,123.60008 509,123.17941 c 0,-0.42067 3.97131,-0.76486 8.82514,-0.76486 l 8.82513,0 9.84968,20.52518 c 5.41733,11.28885 10.19484,20.17635 10.61669,19.75 0.42186,-0.42635 4.77825,-9.55018 9.68087,-20.27518 l 8.91385,-19.5 8.64432,-0.28893 c 5.94056,-0.19856 8.64432,0.0653 8.64432,0.84357 0,0.62287 -6.5625,15.15289 -14.58334,32.28893 -8.02083,17.13604 -20.0102,42.74393 -26.64304,56.90643 l -12.05971,25.75 -8.35696,0 C 514.9823,238.41455 513,238.09233 513,237.05612 z M 294.16251,219.53615 c -0.73562,-0.46628 -1.18562,-1.92189 -1,-3.23469 0.253,-1.78937 0.96334,-2.38691 2.83749,-2.38691 1.87415,0 2.58449,0.59754 2.83749,2.38691 0.28856,2.0408 -1.13049,4.08246 -2.83749,4.08246 -0.275,0 -1.10187,-0.3815 -1.83749,-0.84777 z M 113.5,199.06882 c -12.47361,-4.11045 -22.011733,-13.48114 -25.970586,-25.51468 -2.566185,-7.80032 -1.808132,-20.71213 1.659123,-28.2596 7.181215,-15.63196 21.501243,-23.5957 40.761043,-22.66828 8.10464,0.39027 10.59141,0.94431 16.15398,3.59908 7.91663,3.77826 14.92503,10.88206 18.71638,18.97114 2.39777,5.11578 2.68006,6.87671 2.68006,16.71807 0,10.01222 -0.25037,11.50984 -2.78811,16.67757 -3.68361,7.50111 -12.79635,15.93431 -20.42731,18.90402 -7.14401,2.78021 -24.439,3.66375 -30.78458,1.57268 z m 25.02941,-16.42983 c 8.44879,-4.34352 12.48411,-11.2942 12.44863,-21.44232 -0.0272,-7.77546 -2.28777,-13.04006 -7.69103,-17.91143 -12.87137,-11.60431 -34.49136,-6.48281 -39.21701,9.29 -2.7071,9.0355 -0.66044,19.86306 4.83495,25.57863 2.25936,2.34988 6.85723,4.99796 11.08858,6.38631 4.1191,1.35152 14.22514,0.31496 18.53588,-1.90119 z m 60.92972,15.40869 c -2.77247,-1.29103 -6.32816,-3.87414 -7.90153,-5.74023 -5.85448,-6.9437 -5.99307,-7.81726 -6.36851,-40.1429 l -0.34553,-29.75 7.9947,0 7.9947,0 0.33352,27.25 c 0.31031,25.3535 0.47652,27.49343 2.38826,30.74776 2.63676,4.48851 5.66242,5.96918 12.2351,5.9875 5.78986,0.0161 11.27781,-2.25521 14.94372,-6.18489 2.1843,-2.34147 2.23943,-2.9997 2.5,-29.84732 l 0.26644,-27.45305 8.25,-0.29044 8.25,-0.29044 0,38.58088 0,38.58088 -8.25,-0.29044 -8.25,-0.29044 -0.5,-3.91527 c -0.46564,-3.64626 -0.60307,-3.78998 -2,-2.09164 -0.825,1.003 -4.2,3.10202 -7.5,4.66449 -7.89669,3.73888 -16.66062,3.91224 -24.04087,0.47555 z M 50,168.46681 l 0,-30.94774 -5.25,-0.30226 -5.25,-0.30226 -0.29381,-7.25 -0.293809,-7.25 5.405104,0 5.405104,0 0.526605,-8.75 C 51.092096,99.659004 55.164056,91.143841 63.732722,85.468193 69.064585,81.936514 75.297845,80.818018 82.910536,82.026927 L 88.5,82.914545 l 0.291867,7.739044 0.291867,7.739043 -5.876875,-0.614255 C 71.87464,96.593926 67.51771,100.98829 66.352052,114.77801 l -0.63725,7.53866 6.892599,0.29894 6.892599,0.29894 0.301843,6.40894 c 0.35818,7.60513 -0.0899,8.05454 -8.051843,8.07575 l -5.75,0.0153 0,31 0,31 -8,0 -8,0 0,-30.94774 z m 221,-7.51182 0,-38.54044 8.5,0 8.5,0 0,3.99339 0,3.9934 4.45595,-3.40131 c 5.79153,-4.42077 10.63086,-6.01413 18.14792,-5.97523 11.61373,0.0601 21.77321,8.5951 24.30978,20.4227 C 335.5404,144.36995 336,157.70343 336,172.96377 l 0,26.45078 -7.92845,0 -7.92845,0 -0.32155,-27.25 c -0.35692,-30.24741 -0.67825,-31.86266 -7.1201,-35.79048 -6.10391,-3.72178 -16.02773,-1.59453 -21.93499,4.70192 l -2.73354,2.91364 -0.26646,27.46246 -0.26646,27.46246 -8.25,0.29044 -8.25,0.29044 0,-38.54044 z m 110.74592,37.38426 c -6.1944,-1.47702 -13.14058,-5.51226 -17.17421,-9.97701 -10.64647,-11.78437 -13.24123,-32.20098 -6.02978,-47.44475 4.92865,-10.4183 16.95192,-18.75409 28.89509,-20.0331 5.57798,-0.59735 14.46414,0.37502 18.79196,2.05632 1.59878,0.6211 1.74939,-0.86071 2,-19.67724 L 408.5,82.914545 l 8,0 8,0 0,58.000005 0,58 -19.5,0.15992 c -10.725,0.088 -21.18933,-0.2429 -23.25408,-0.73522 z M 408,161.54451 l 0,-23.87004 -4.75,-1.37942 c -10.42678,-3.02797 -21.41094,-0.29148 -26.70844,6.6539 -8.32134,10.90984 -7.23373,30.88659 2.06785,37.98125 4.14372,3.16057 9.19636,4.23148 20.64059,4.37478 l 8.75,0.10957 0,-23.87004 z m 39,-0.5879 0,-38.54206 8,0 8,0 0,7.65004 0,7.65004 2.83611,-3.90004 c 4.29514,-5.9064 10.58688,-11.14688 14.95379,-12.45524 5.21167,-1.56145 13.37252,0.75479 18.60952,5.28181 l 3.8041,3.28839 -3.73109,6.26342 c -2.05211,3.44488 -4.07001,6.47287 -4.48423,6.72887 -0.41422,0.256 -1.81852,-0.36478 -3.12066,-1.37952 -10.6859,-8.32733 -20.03079,-6.25661 -26.50057,5.87223 -1.62594,3.04814 -1.93152,6.59849 -2.36697,27.5 l -0.5,24 -7.75,0.29206 -7.75,0.29207 0,-38.54207 z M 120.31291,103.30965 C 114.30192,101.57508 113,98.543229 113,86.279686 l 0,-10.865141 -3,0 c -1.65,0 -3,-0.3505 -3,-0.778888 0,-0.978057 12.29472,-13.221112 13.27691,-13.221112 0.3977,0 0.72309,1.575 0.72309,3.5 l 0,3.5 5.56336,0 5.56336,0 -0.31336,3.25 c -0.30558,3.169333 -0.44367,3.257502 -5.56336,3.55226 l -5.25,0.302259 0.0153,9.197741 c 0.008,5.058757 0.38641,9.782783 0.83998,10.497835 0.98306,1.549808 3.3221,1.75389 8.39471,0.732443 3.68427,-0.741884 3.75,-0.701202 3.75,2.320987 0,1.91875 -0.65842,3.41606 -1.75,3.97967 -2.95851,1.52753 -8.58804,2.02833 -11.93709,1.06191 z M 187,103.43969 c -12.81463,-2.33735 -18.1259,-19.591474 -9.27039,-30.115651 7.09764,-8.435061 19.68563,-7.581928 25.00394,1.694607 1.22845,2.142744 2.24095,5.583399 2.25,7.645899 l 0.0164,3.75 -11.5,0 c -10.97531,0 -11.5,0.09476 -11.5,2.076923 0,1.142308 1.31538,3.392308 2.92308,5 3.396,3.396001 8.7674,3.914895 14.73116,1.423077 5.02183,-2.098252 5.51406,-1.931284 5.15912,1.75 -0.25042,2.597176 -1.0164,3.579375 -3.81336,4.889735 -4.34478,2.03552 -9.4256,2.71976 -14,1.88541 z m 10,-23.525145 c 0,-2.525126 -3.81079,-5.5 -7.04545,-5.5 -2.99905,0 -7.95455,3.709545 -7.95455,5.954545 0,0.634344 2.94928,1.045455 7.5,1.045455 6,0 7.5,-0.3 7.5,-1.5 z m -60,-3 0,-26.5 4,0 4,0 0,10.466275 0,10.466274 3.54542,-2.091851 c 4.89897,-2.890464 10.68448,-2.071809 14.8612,2.102874 l 3.09338,3.09187 0.34376,14.482279 0.34377,14.482284 -4.09377,0 -4.09376,0 0,-12.54546 c 0,-12.070616 -0.0952,-12.640708 -2.51665,-15.062103 -2.70779,-2.707789 -4.93328,-2.586308 -9.20193,0.502295 -2.0883,1.511002 -2.22042,2.353945 -2.25,14.355263 l -0.0314,12.750005 -4,0 -4,0 0,-26.500005 z"
     id="path3137"
     inkscape:connector-curvature="0" />
</svg>
